<?xml version="1.0" encoding="UTF-8"?>
<svg width="66" height="54" viewBox="0 0 66 54" fill="none" xmlns="http://www.w3.org/2000/svg">
    <title>Mehran</title>
    <defs></defs> 
    <path d="M4.19228 1.92842L13.7421 24.7804L23.3275 1.92842H26.244V27.8215H24.0566V16.5466L24.2345 4.98722L14.5957 27.8215H12.9063L3.30309 5.07613L3.48093 16.4755V27.8215H1.29354V1.92842H4.19228Z" fill="#828282"/>
    <path d="M39.7596 28.1771C38.1235 28.1771 36.6416 27.774 35.3137 26.9678C33.9977 26.1616 32.9722 25.0413 32.2371 23.6067C31.5021 22.1603 31.1345 20.542 31.1345 18.7518V17.9871C31.1345 16.1376 31.4902 14.4718 32.2016 12.9899C32.9248 11.5079 33.9266 10.346 35.207 9.50427C36.4874 8.65065 37.8746 8.22384 39.3684 8.22384C41.704 8.22384 43.5535 9.02411 44.9169 10.6246C46.2922 12.2133 46.9798 14.3889 46.9798 17.1512V18.3428H33.2508V18.7518C33.2508 20.9332 33.8732 22.7531 35.1181 24.2114C36.3748 25.6578 37.9516 26.381 39.8485 26.381C40.9867 26.381 41.9885 26.1735 42.854 25.7585C43.7313 25.3436 44.5257 24.6797 45.237 23.7668L46.5708 24.7804C45.0058 27.0449 42.7354 28.1771 39.7596 28.1771ZM39.3684 10.0378C37.7679 10.0378 36.4163 10.6246 35.3137 11.7984C34.223 12.9721 33.5591 14.5489 33.3219 16.5288H44.8635V16.2976C44.8043 14.4481 44.2767 12.9424 43.2808 11.7806C42.2849 10.6187 40.9808 10.0378 39.3684 10.0378Z" fill="#828282"/>
    <path d="M53.2397 11.8339C53.9391 10.6839 54.8343 9.79474 55.925 9.16638C57.0157 8.53802 58.2072 8.22384 59.4995 8.22384C61.5624 8.22384 63.0977 8.80478 64.1055 9.96664C65.1132 11.1285 65.623 12.8713 65.6349 15.195V27.8215H63.5186V15.1773C63.5068 13.4582 63.1392 12.1777 62.416 11.336C61.7047 10.4942 60.5606 10.0733 58.9838 10.0733C57.6678 10.0733 56.5 10.4883 55.4804 11.3182C54.4727 12.1363 53.7257 13.2448 53.2397 14.6438V27.8215H51.1234V0.50573H53.2397V11.8339Z" fill="#828282"/>
    <path d="M9.68743 36.1546C9.23691 36.0716 8.75675 36.0301 8.24695 36.0301C6.91911 36.0301 5.79281 36.4036 4.86805 37.1505C3.95516 37.8856 3.30309 38.9585 2.91185 40.3694V53.5826H0.795593V34.3407H2.87628L2.91185 37.3995C4.03815 35.1232 5.84616 33.985 8.33587 33.985C8.92866 33.985 9.39696 34.0621 9.74078 34.2162L9.68743 36.1546Z" fill="#828282"/>
    <path d="M24.5012 53.5826C24.2878 52.978 24.1515 52.0829 24.0922 50.8973C23.3453 51.8695 22.3909 52.6223 21.229 53.1558C20.079 53.6775 18.8579 53.9383 17.5656 53.9383C15.7161 53.9383 14.2163 53.4226 13.0663 52.3911C11.9282 51.3597 11.3591 50.0555 11.3591 48.4787C11.3591 46.6055 12.1357 45.1235 13.6888 44.0328C15.2537 42.9421 17.4293 42.3967 20.2154 42.3967H24.0744V40.2093C24.0744 38.834 23.6476 37.7552 22.794 36.9727C21.9522 36.1783 20.7192 35.7812 19.095 35.7812C17.613 35.7812 16.3859 36.1606 15.4138 36.9193C14.4416 37.6781 13.9555 38.591 13.9555 39.658L11.8215 39.6402C11.8215 38.1108 12.5328 36.7889 13.9555 35.6745C15.3782 34.5482 17.1269 33.985 19.2017 33.985C21.3476 33.985 23.037 34.5245 24.27 35.6033C25.5149 36.6703 26.1551 38.1642 26.1907 40.0848V49.1901C26.1907 51.0514 26.3863 52.4445 26.7775 53.3692V53.5826H24.5012ZM17.8146 52.0532C19.2373 52.0532 20.5058 51.7094 21.6203 51.0218C22.7466 50.3341 23.5646 49.4153 24.0744 48.2653V44.0328H20.2687C18.1465 44.0565 16.4867 44.4477 15.2893 45.2065C14.0919 45.9534 13.4931 46.9849 13.4931 48.3009C13.4931 49.3797 13.8903 50.2749 14.6846 50.9862C15.4908 51.6976 16.5341 52.0532 17.8146 52.0532Z" fill="#828282"/>
    <path d="M33.9088 34.3407L33.9799 37.6307C34.7031 36.4451 35.6042 35.544 36.6831 34.9275C37.7619 34.2992 38.9534 33.985 40.2576 33.985C42.3205 33.985 43.8558 34.5659 44.8635 35.7278C45.8713 36.8897 46.3811 38.6325 46.3929 40.9562V53.5826H44.2767V40.9384C44.2648 39.2193 43.8973 37.9389 43.1741 37.0972C42.4627 36.2554 41.3187 35.8345 39.7418 35.8345C38.4259 35.8345 37.2581 36.2495 36.2385 37.0794C35.2307 37.8974 34.4838 39.0059 33.9977 40.4049V53.5826H31.8815V34.3407H33.9088Z" fill="#828282"/>
</svg>
